:FULLY-SPECIFIED
:FORCE-ALL-JOINTS-BE-3DOF
:DEGREES
679
root 5.36457 16.3769 0.966495 0 0 0
lfemur 0 0 0
ltibia 0 0 0
lfoot 0 0 0
ltoes 9.11536 -0 0
rfemur 0 0 0
rtibia 0 0 0
rfoot 0 0 0
rtoes 0 0 0
lowerback 0 0 0
upperback -1.95706 -7.9598 0.105039
thorax 0 0 0
lowerneck 0 0 0
upperneck 2.28843 -6.14843 3.3548
head 0 0 0
lclavicle 0 0 0
lhumerus 20.2593 -61.8665 50.6578
lradius 0 0 0
lwrist 28.4699 0 0
lhand 0 0 0
lfingers 0 0 0
lthumb 11.6166 27.7952 0.0934603
rclavicle 0 0 0
rhumerus -47.4006 -10.8926 -41.4172
rradius 0 0 0
rwrist 0 0 0
rhand -29.2922 -46.4592 -0.0788807
rfingers 0 0 0
rthumb -2.63355 -76.4042 -0.077495
680
root 5.35602 16.4864 1.10378 0 0 0
lfemur 0 0 0
ltibia 0 0 0
lfoot 0 0 0
ltoes 11.0186 -0 0
rfemur 0 0 0
rtibia 0 0 0
rfoot 0 0 0
rtoes 0 0 0
lowerback 0 0 0
upperback -1.93912 -7.79584 -0.117407
thorax 0 0 0
lowerneck 0 0 0
upperneck 2.4506 -6.18342 3.52757
head 0 0 0
lclavicle 0 0 0
lhumerus 23.386 -59.2289 45.5497
lradius 0 0 0
lwrist 28.5978 0 0
lhand 0 0 0
lfingers 0 0 0
lthumb 11.029 27.4384 0.105102
rclavicle 0 0 0
rhumerus -46.5514 -10.5438 -39.2678
rradius 0 0 0
rwrist 0 0 0
rhand -29.6995 -46.0248 -0.0887051
rfingers 0 0 0
rthumb -3.02686 -75.9622 -0.0871467
681
root 5.34743 16.6023 1.24227 0 0 0
lfemur 0 0 0
ltibia 0 0 0
lfoot 0 0 0
ltoes 12.9913 -0 0
rfemur 0 0 0
rtibia 0 0 0
rfoot 0 0 0
rtoes 0 0 0
lowerback 0 0 0
upperback -1.92121 -7.62583 -0.347817
thorax 0 0 0
lowerneck 0 0 0
upperneck 2.61858 -6.22019 3.70655
head 0 0 0
lclavicle 0 0 0
lhumerus 25.9304 -56.3701 40.9245
lradius 0 0 0
lwrist 28.7304 0 0
lhand 0 0 0
lfingers 0 0 0
lthumb 10.4198 27.0685 0.113306
rclavicle 0 0 0
rhumerus -45.6588 -10.2156 -37.0372
rradius 0 0 0
rwrist 0 0 0
rhand -30.1218 -45.5744 -0.0956276
rfingers 0 0 0
rthumb -3.43459 -75.504 -0.0939475
682
root 5.33893 16.724 1.38225 0 0 0
lfemur 0 0 0
ltibia 0 0 0
lfoot 0 0 0
ltoes 15.0036 -0 0
rfemur 0 0 0
rtibia 0 0 0
rfoot 0 0 0
rtoes 0 0 0
lowerback 0 0 0
upperback -1.90365 -7.45233 -0.58271
thorax 0 0 0
lowerneck 0 0 0
upperneck 2.78983 -6.25825 3.88902
head 0 0 0
lclavicle 0 0 0
lhumerus 27.9382 -53.3567 36.7607
lradius 0 0 0
lwrist 28.8656 0 0
lhand 0 0 0
lfingers 0 0 0
lthumb 9.7984 26.6911 0.117622
rclavicle 0 0 0
rhumerus -44.7365 -9.91635 -34.7589
rradius 0 0 0
rwrist 0 0 0
rhand -30.5525 -45.1149 -0.0992692
rfingers 0 0 0
rthumb -3.85055 -75.0366 -0.0975251
683
root 5.33062 16.8508 1.524 0 0 0
lfemur 0 0 0
ltibia 0 0 0
lfoot 0 0 0
ltoes 17.0258 -0 0
rfemur 0 0 0
rtibia 0 0 0
rfoot 0 0 0
rtoes 0 0 0
lowerback 0 0 0
upperback -1.88674 -7.27791 -0.818614
thorax 0 0 0
lowerneck 0 0 0
upperneck 2.96181 -6.29703 4.07229
head 0 0 0
lclavicle 0 0 0
lhumerus 29.4742 -50.2558 33.0194
lradius 0 0 0
lwrist 29.0015 0 0
lhand 0 0 0
lfingers 0 0 0
lthumb 9.17388 26.3118 0.117835
rclavicle 0 0 0
rhumerus -43.799 -9.65222 -32.4667
rradius 0 0 0
rwrist 0 0 0
rhand -30.9854 -44.6532 -0.0994488
rfingers 0 0 0
rthumb -4.26857 -74.5668 -0.0977015
684
root 5.32263 16.982 1.6678 0 0 0
lfemur 0 0 0
ltibia 0 0 0
lfoot 0 0 0
ltoes 19.0282 -0 0
rfemur 0 0 0
rtibia 0 0 0
rfoot 0 0 0
rtoes 0 0 0
lowerback 0 0 0
upperback -1.87071 -7.10513 -1.05206
thorax 0 0 0
lowerneck 0 0 0
upperneck 3.132 -6.33598 4.25366
head 0 0 0
lclavicle 0 0 0
lhumerus 30.6082 -47.133 29.6584
lradius 0 0 0
lwrist 29.1361 0 0
lhand 0 0 0
lfingers 0 0 0
lthumb 8.5555 25.9362 0.113972
rclavicle 0 0 0
rhumerus -42.8616 -9.42731 -30.1945
rradius 0 0 0
rwrist 0 0 0
rhand -31.4141 -44.196 -0.0961891
rfingers 0 0 0
rthumb -4.68248 -74.1017 -0.0944992
685
root 5.31505 17.1167 1.81392 0 0 0
lfemur 0 0 0
ltibia 0 0 0
lfoot 0 0 0
ltoes 20.981 -0 0
rfemur 0 0 0
rtibia 0 0 0
rfoot 0 0 0
rtoes 0 0 0
lowerback 0 0 0
upperback -1.85577 -6.93657 -1.27961
thorax 0 0 0
lowerneck 0 0 0
upperneck 3.29787 -6.37448 4.43044
head 0 0 0
lclavicle 0 0 0
lhumerus 31.4077 -44.0517 26.6405
lradius 0 0 0
lwrist 29.2673 0 0
lhand 0 0 0
lfingers 0 0 0
lthumb 7.95247 25.57 0.1063
rclavicle 0 0 0
rhumerus -41.9398 -9.24346 -27.9766
rradius 0 0 0
rwrist 0 0 0
rhand -31.832 -43.7501 -0.089716
rfingers 0 0 0
rthumb -5.08611 -73.6481 -0.0881398
686
root 5.30799 17.2545 1.96263 0 0 0
lfemur 0 0 0
ltibia 0 0 0
lfoot 0 0 0
ltoes 22.8545 -0 0
rfemur 0 0 0
rtibia 0 0 0
rfoot 0 0 0
rtoes 0 0 0
lowerback 0 0 0
upperback -1.84208 -6.7748 -1.49779
thorax 0 0 0
lowerneck 0 0 0
upperneck 3.45689 -6.41189 4.59995
head 0 0 0
lclavicle 0 0 0
lhumerus 31.9351 -41.0723 23.9363
lradius 0 0 0
lwrist 29.3932 0 0
lhand 0 0 0
lfingers 0 0 0
lthumb 7.37398 25.2187 0.0953186
rclavicle 0 0 0
rhumerus -41.0498 -9.1003 -25.8472
rradius 0 0 0
rwrist 0 0 0
rhand -32.233 -43.3225 -0.0804489
rfingers 0 0 0
rthumb -5.47329 -73.2129 -0.0790356
687
root 5.30158 17.3944 2.11422 0 0 0
lfemur 0 0 0
ltibia 0 0 0
lfoot 0 0 0
ltoes 24.619 -0 0
rfemur 0 0 0
rtibia 0 0 0
rfoot 0 0 0
rtoes 0 0 0
lowerback 0 0 0
upperback -1.82975 -6.62239 -1.70317
thorax 0 0 0
lowerneck 0 0 0
upperneck 3.60658 -6.44755 4.75951
head 0 0 0
lclavicle 0 0 0
lhumerus 32.2474 -38.2529 21.5264
lradius 0 0 0
lwrist 29.5118 0 0
lhand 0 0 0
lfingers 0 0 0
lthumb 6.82923 24.888 0.0817338
rclavicle 0 0 0
rhumerus -40.2075 -8.99542 -23.8406
rradius 0 0 0
rwrist 0 0 0
rhand -32.6106 -42.9197 -0.0689849
rfingers 0 0 0
rthumb -5.83787 -72.8032 -0.0677731
688
root 5.29593 17.5359 2.26897 0 0 0
lfemur 0 0 0
ltibia 0 0 0
lfoot 0 0 0
ltoes 26.2447 -0 0
rfemur 0 0 0
rtibia 0 0 0
rfoot 0 0 0
rtoes 0 0 0
lowerback 0 0 0
upperback -1.81889 -6.48194 -1.89232
thorax 0 0 0
lowerneck 0 0 0
upperneck 3.74441 -6.48077 4.90645
head 0 0 0
lclavicle 0 0 0
lhumerus 32.3957 -35.6485 19.4006
lradius 0 0 0
lwrist 29.6211 0 0
lhand 0 0 0
lfingers 0 0 0
lthumb 6.32741 24.5835 0.0664355
rclavicle 0 0 0
rhumerus -39.4288 -8.92463 -21.9911
rradius 0 0 0
rwrist 0 0 0
rhand -32.9583 -42.5488 -0.0560742
rfingers 0 0 0
rthumb -6.17369 -72.4258 -0.0550892
689
root 5.29114 17.6781 2.42714 0 0 0
lfemur 0 0 0
ltibia 0 0 0
lfoot 0 0 0
ltoes 27.7019 -0 0
rfemur 0 0 0
rtibia 0 0 0
rfoot 0 0 0
rtoes 0 0 0
lowerback 0 0 0
upperback -1.80954 -6.35602 -2.06179
thorax 0 0 0
lowerneck 0 0 0
upperneck 3.86788 -6.51085 5.03809
head 0 0 0
lclavicle 0 0 0
lhumerus 32.4264 -33.3117 17.5577
lradius 0 0 0
lwrist 29.719 0 0
lhand 0 0 0
lfingers 0 0 0
lthumb 5.87767 24.3106 0.0504565
rclavicle 0 0 0
rhumerus -38.7292 -8.88231 -20.3328
rradius 0 0 0
rwrist 0 0 0
rhand -33.27 -42.2163 -0.0425885
rfingers 0 0 0
rthumb -6.47462 -72.0875 -0.0418404
690
root 5.28732 17.8205 2.58902 0 0 0
lfemur 0 0 0
ltibia 0 0 0
lfoot 0 0 0
ltoes 28.9608 -0 0
rfemur 0 0 0
rtibia 0 0 0
rfoot 0 0 0
rtoes 0 0 0
lowerback 0 0 0
upperback -1.80178 -6.2472 -2.20815
thorax 0 0 0
lowerneck 0 0 0
upperneck 3.97451 -6.53706 5.15178
head 0 0 0
lclavicle 0 0 0
lhumerus 32.3815 -31.2931 16.0046
lradius 0 0 0
lwrist 29.8036 0 0
lhand 0 0 0
lfingers 0 0 0
lthumb 5.4892 24.075 0.0349277
rclavicle 0 0 0
rhumerus -38.1241 -8.86187 -18.9
rradius 0 0 0
rwrist 0 0 0
rhand -33.5392 -41.9292 -0.0294819
rfingers 0 0 0
rthumb -6.73454 -71.7953 -0.028964
691
root 5.28459 17.9623 2.75489 0 0 0
lfemur 0 0 0
ltibia 0 0 0
lfoot 0 0 0
ltoes 29.9918 -0 0
rfemur 0 0 0
rtibia 0 0 0
rfoot 0 0 0
rtoes 0 0 0
lowerback 0 0 0
upperback -1.79563 -6.15808 -2.32798
thorax 0 0 0
lowerneck 0 0 0
upperneck 4.06179 -6.55868 5.24485
head 0 0 0
lclavicle 0 0 0
lhumerus 32.2986 -29.6413 14.7553
lradius 0 0 0
lwrist 29.8729 0 0
lhand 0 0 0
lfingers 0 0 0
lthumb 5.17112 23.8821 0.0210216
rclavicle 0 0 0
rhumerus -37.6283 -8.85626 -17.7265
rradius 0 0 0
rwrist 0 0 0
rhand -33.7595 -41.694 -0.0177444
rfingers 0 0 0
rthumb -6.94734 -71.5561 -0.0174327
